<?xml version="1.0" standalone="no"?>
<!DOCTYPE svg PUBLIC "-//W3C//DTD SVG 1.1//EN" "http://www.w3.org/Graphics/SVG/1.1/DTD/svg11.dtd">
<svg xmlns="http://www.w3.org/2000/svg" width="806" height="168" viewBox="0 0 806 168" fill="none">
<g clip-path="url(#clip0_59_2)">
<g clip-path="url(#clip1_59_2)">
<path d="M9.72069 67.4926C6.25469 67.4926 4.52168 65.7242 4.52168 62.1875V49.2961C4.52168 43.6373 5.98943 39.3578 8.92492 36.4577C11.8604 33.5576 16.1929 32.1075 21.9224 32.1075H34.8139C38.3152 32.1075 40.0659 33.8405 40.0659 37.3065C40.0659 40.8079 38.3152 42.5586 34.8139 42.5586H22.5591C20.0833 42.5586 18.1912 43.1952 16.8826 44.4684C15.6094 45.7416 14.9727 47.6692 14.9727 50.251V62.1875C14.9727 65.7242 13.2221 67.4926 9.72069 67.4926ZM104.417 67.4926C100.951 67.4926 99.2179 65.7242 99.2179 62.1875V50.251C99.2179 47.6692 98.5459 45.7416 97.202 44.4684C95.8934 43.1952 94.0189 42.5586 91.5785 42.5586H79.3237C75.8224 42.5586 74.0717 40.8079 74.0717 37.3065C74.0717 33.8405 75.8224 32.1075 79.3237 32.1075H92.2151C97.98 32.1075 102.33 33.5576 105.266 36.4577C108.201 39.3578 109.669 43.6373 109.669 49.2961V62.1875C109.669 65.7242 107.918 67.4926 104.417 67.4926ZM21.9224 137.202C16.1929 137.202 11.8604 135.734 8.92492 132.798C5.98943 129.898 4.52168 125.619 4.52168 119.96V107.122C4.52168 103.585 6.25469 101.817 9.72069 101.817C13.2221 101.817 14.9727 103.585 14.9727 107.122V119.058C14.9727 121.64 15.6094 123.568 16.8826 124.841C18.1912 126.114 20.0833 126.751 22.5591 126.751H34.8139C38.3152 126.751 40.0659 128.501 40.0659 132.003C40.0659 135.469 38.3152 137.202 34.8139 137.202H21.9224ZM79.3237 137.202C75.8224 137.202 74.0717 135.469 74.0717 132.003C74.0717 128.501 75.8224 126.751 79.3237 126.751H91.5785C94.0189 126.751 95.8934 126.114 97.202 124.841C98.5459 123.568 99.2179 121.64 99.2179 119.058V107.122C99.2179 103.585 100.951 101.817 104.417 101.817C107.918 101.817 109.669 103.585 109.669 107.122V119.96C109.669 125.619 108.201 129.898 105.266 132.798C102.33 135.734 97.98 137.202 92.2151 137.202H79.3237Z" fill="black"/>
<path d="M37.6603 86.2518C34.0765 86.2518 31.213 85.0362 29.0699 82.6049C26.9448 80.1556 25.8822 76.7879 25.8822 72.5017C25.8822 68.1614 26.9538 64.8027 29.0969 62.4255C31.24 60.0482 34.0945 58.8596 37.6603 58.8596C41.2442 58.8596 44.1077 60.0482 46.2508 62.4255C48.3939 64.7847 49.4654 68.1344 49.4654 72.4747C49.4654 76.7609 48.4029 80.1286 46.2778 82.5779C44.1527 85.0272 41.2802 86.2518 37.6603 86.2518ZM37.6603 79.8495C38.8489 79.8495 39.7404 79.2372 40.3347 78.0125C40.929 76.7879 41.2262 74.9509 41.2262 72.5017C41.2262 70.0884 40.929 68.2785 40.3347 67.0719C39.7404 65.8652 38.8489 65.2619 37.6603 65.2619C36.4897 65.2619 35.5983 65.8652 34.9859 67.0719C34.3916 68.2785 34.0945 70.0884 34.0945 72.5017C34.0945 74.9509 34.3916 76.7879 34.9859 78.0125C35.5983 79.2372 36.4897 79.8495 37.6603 79.8495ZM75.4529 110.132C71.851 110.132 68.9786 108.917 66.8355 106.485C64.7103 104.054 63.6478 100.686 63.6478 96.3821C63.6478 92.0418 64.7194 88.6831 66.8625 86.3058C69.0056 83.9286 71.8691 82.74 75.4529 82.74C79.0188 82.74 81.8732 83.9286 84.0164 86.3058C86.1595 88.6831 87.231 92.0418 87.231 96.3821C87.231 100.65 86.1685 104.009 84.0434 106.458C81.9183 108.908 79.0548 110.132 75.4529 110.132ZM75.4529 103.757C76.6235 103.757 77.506 103.145 78.1003 101.92C78.7126 100.677 79.0188 98.8313 79.0188 96.3821C79.0188 93.9508 78.7126 92.1409 78.1003 90.9522C77.506 89.7456 76.6235 89.1423 75.4529 89.1423C74.2643 89.1423 73.3728 89.7456 72.7785 90.9522C72.1842 92.1589 71.8871 93.9688 71.8871 96.3821C71.8871 98.8313 72.1842 100.677 72.7785 101.92C73.3728 103.145 74.2643 103.757 75.4529 103.757ZM39.8485 109.754C38.876 109.196 38.2997 108.394 38.1196 107.35C37.9395 106.305 38.1826 105.279 38.8489 104.27L67.9971 60.5075C68.6454 59.553 69.4648 58.9587 70.4553 58.7245C71.4458 58.4724 72.3823 58.5985 73.2648 59.1027C74.2553 59.643 74.8586 60.4534 75.0747 61.534C75.2908 62.5965 75.0657 63.6321 74.3994 64.6406L45.2513 108.538C44.6389 109.457 43.8015 110.015 42.739 110.213C41.6944 110.429 40.7309 110.276 39.8485 109.754Z" fill="black"/>
</g>
<path d="M154.48 125L185.2 41H202.48L233.2 125H216.88L210.16 105.56H177.4L170.56 125H154.48ZM181.6 93.56H205.96L193.72 58.64L181.6 93.56ZM262.261 126.44C256.981 126.44 252.341 125.6 248.341 123.92C244.341 122.16 241.141 119.76 238.741 116.72C236.341 113.68 234.901 110.16 234.421 106.16H249.901C250.381 108.48 251.661 110.48 253.741 112.16C255.901 113.76 258.661 114.56 262.021 114.56C265.381 114.56 267.821 113.88 269.341 112.52C270.941 111.16 271.741 109.6 271.741 107.84C271.741 105.28 270.621 103.56 268.381 102.68C266.141 101.72 263.021 100.8 259.021 99.92C256.461 99.36 253.861 98.68 251.221 97.88C248.581 97.08 246.141 96.08 243.901 94.88C241.741 93.6 239.981 92 238.621 90.08C237.261 88.08 236.581 85.64 236.581 82.76C236.581 77.48 238.661 73.04 242.821 69.44C247.061 65.84 252.981 64.04 260.581 64.04C267.621 64.04 273.221 65.68 277.381 68.96C281.621 72.24 284.141 76.76 284.941 82.52H270.421C269.541 78.12 266.221 75.92 260.461 75.92C257.581 75.92 255.341 76.48 253.741 77.6C252.221 78.72 251.461 80.12 251.461 81.8C251.461 83.56 252.621 84.96 254.941 86C257.261 87.04 260.341 88 264.181 88.88C268.341 89.84 272.141 90.92 275.581 92.12C279.101 93.24 281.901 94.96 283.981 97.28C286.061 99.52 287.101 102.76 287.101 107C287.181 110.68 286.221 114 284.221 116.96C282.221 119.92 279.341 122.24 275.581 123.92C271.821 125.6 267.381 126.44 262.261 126.44ZM319.308 126.44C314.028 126.44 309.388 125.6 305.388 123.92C301.388 122.16 298.188 119.76 295.788 116.72C293.388 113.68 291.948 110.16 291.468 106.16H306.948C307.428 108.48 308.708 110.48 310.788 112.16C312.948 113.76 315.708 114.56 319.068 114.56C322.428 114.56 324.868 113.88 326.388 112.52C327.988 111.16 328.788 109.6 328.788 107.84C328.788 105.28 327.668 103.56 325.428 102.68C323.188 101.72 320.068 100.8 316.068 99.92C313.508 99.36 310.908 98.68 308.268 97.88C305.628 97.08 303.188 96.08 300.948 94.88C298.788 93.6 297.028 92 295.668 90.08C294.308 88.08 293.628 85.64 293.628 82.76C293.628 77.48 295.708 73.04 299.868 69.44C304.108 65.84 310.028 64.04 317.628 64.04C324.668 64.04 330.268 65.68 334.428 68.96C338.668 72.24 341.188 76.76 341.988 82.52H327.468C326.588 78.12 323.268 75.92 317.508 75.92C314.628 75.92 312.388 76.48 310.788 77.6C309.268 78.72 308.508 80.12 308.508 81.8C308.508 83.56 309.668 84.96 311.988 86C314.308 87.04 317.388 88 321.228 88.88C325.388 89.84 329.188 90.92 332.628 92.12C336.148 93.24 338.948 94.96 341.028 97.28C343.108 99.52 344.148 102.76 344.148 107C344.228 110.68 343.268 114 341.268 116.96C339.268 119.92 336.388 122.24 332.628 123.92C328.868 125.6 324.428 126.44 319.308 126.44ZM380.675 126.44C374.675 126.44 369.355 125.16 364.715 122.6C360.075 120.04 356.435 116.44 353.795 111.8C351.155 107.16 349.835 101.8 349.835 95.72C349.835 89.56 351.115 84.08 353.675 79.28C356.315 74.48 359.915 70.76 364.475 68.12C369.115 65.4 374.555 64.04 380.795 64.04C386.635 64.04 391.795 65.32 396.275 67.88C400.755 70.44 404.235 73.96 406.715 78.44C409.275 82.84 410.555 87.76 410.555 93.2C410.555 94.08 410.515 95 410.435 95.96C410.435 96.92 410.395 97.92 410.315 98.96H365.075C365.395 103.6 366.995 107.24 369.875 109.88C372.835 112.52 376.395 113.84 380.555 113.84C383.675 113.84 386.275 113.16 388.355 111.8C390.515 110.36 392.115 108.52 393.155 106.28H408.755C407.635 110.04 405.755 113.48 403.115 116.6C400.555 119.64 397.355 122.04 393.515 123.8C389.755 125.56 385.475 126.44 380.675 126.44ZM380.795 76.52C377.035 76.52 373.715 77.6 370.835 79.76C367.955 81.84 366.115 85.04 365.315 89.36H394.955C394.715 85.44 393.275 82.32 390.635 80C387.995 77.68 384.715 76.52 380.795 76.52ZM442.939 125C436.699 125 431.699 123.48 427.939 120.44C424.179 117.4 422.299 112 422.299 104.24V78.32H412.099V65.48H422.299L424.099 49.52H437.659V65.48H453.739V78.32H437.659V104.36C437.659 107.24 438.259 109.24 439.459 110.36C440.739 111.4 442.899 111.92 445.939 111.92H453.379V125H442.939Z" fill="black"/>
<path d="M490.908 125L468.708 41H485.148L500.268 107.84L518.028 41H534.948L552.228 107.84L567.348 41H583.908L561.108 125H542.868L526.188 62.72L509.028 125H490.908ZM610.911 126.44C605.151 126.44 599.951 125.12 595.311 122.48C590.751 119.84 587.111 116.2 584.391 111.56C581.751 106.84 580.431 101.4 580.431 95.24C580.431 89.08 581.791 83.68 584.511 79.04C587.231 74.32 590.871 70.64 595.431 68C600.071 65.36 605.271 64.04 611.031 64.04C616.711 64.04 621.831 65.36 626.391 68C631.031 70.64 634.671 74.32 637.311 79.04C640.031 83.68 641.391 89.08 641.391 95.24C641.391 101.4 640.031 106.84 637.311 111.56C634.671 116.2 631.031 119.84 626.391 122.48C621.751 125.12 616.591 126.44 610.911 126.44ZM610.911 113.12C614.911 113.12 618.391 111.64 621.351 108.68C624.311 105.64 625.791 101.16 625.791 95.24C625.791 89.32 624.311 84.88 621.351 81.92C618.391 78.88 614.951 77.36 611.031 77.36C606.951 77.36 603.431 78.88 600.471 81.92C597.591 84.88 596.151 89.32 596.151 95.24C596.151 101.16 597.591 105.64 600.471 108.68C603.431 111.64 606.911 113.12 610.911 113.12ZM649.125 125V65.48H662.805L664.245 76.64C666.405 72.8 669.325 69.76 673.005 67.52C676.765 65.2 681.165 64.04 686.205 64.04V80.24H681.885C678.525 80.24 675.525 80.76 672.885 81.8C670.245 82.84 668.165 84.64 666.645 87.2C665.205 89.76 664.485 93.32 664.485 97.88V125H649.125ZM690.703 125V38.6H706.063V89.6L727.183 65.48H745.423L721.063 92.6L749.383 125H730.183L706.063 95.12V125H690.703ZM774.576 126.44C769.296 126.44 764.656 125.6 760.656 123.92C756.656 122.16 753.456 119.76 751.056 116.72C748.656 113.68 747.216 110.16 746.736 106.16H762.216C762.696 108.48 763.976 110.48 766.056 112.16C768.216 113.76 770.976 114.56 774.336 114.56C777.696 114.56 780.136 113.88 781.656 112.52C783.256 111.16 784.056 109.6 784.056 107.84C784.056 105.28 782.936 103.56 780.696 102.68C778.456 101.72 775.336 100.8 771.336 99.92C768.776 99.36 766.176 98.68 763.536 97.88C760.896 97.08 758.456 96.08 756.216 94.88C754.056 93.6 752.296 92 750.936 90.08C749.576 88.08 748.896 85.64 748.896 82.76C748.896 77.48 750.976 73.04 755.136 69.44C759.376 65.84 765.296 64.04 772.896 64.04C779.936 64.04 785.536 65.68 789.696 68.96C793.936 72.24 796.456 76.76 797.256 82.52H782.736C781.856 78.12 778.536 75.92 772.776 75.92C769.896 75.92 767.656 76.48 766.056 77.6C764.536 78.72 763.776 80.12 763.776 81.8C763.776 83.56 764.936 84.96 767.256 86C769.576 87.04 772.656 88 776.496 88.88C780.656 89.84 784.456 90.92 787.896 92.12C791.416 93.24 794.216 94.96 796.296 97.28C798.376 99.52 799.416 102.76 799.416 107C799.496 110.68 798.536 114 796.536 116.96C794.536 119.92 791.656 122.24 787.896 123.92C784.136 125.6 779.696 126.44 774.576 126.44Z" fill="black"/>
</g>
<defs>
<clipPath id="clip0_59_2">
<rect width="806" height="168" fill="white"/>
</clipPath>
<clipPath id="clip1_59_2">
<rect width="114.727" height="114.668" fill="white" transform="translate(0.993652 26.666)"/>
</clipPath>
</defs>
</svg>